{"title":"Chef Academy S01E09 Season Finale PDTV-XVID Momentum [Dodeca","uid":5276306,"size":365660160,"categoryP":"video","categoryS":"tv_shows","magnet":"?xt=urn:btih:34ac0f87f69f11856b5ba343d290d0204a7bbb01&amp;dn=Chef+Academy+S01E09+Season+Finale+PDTV-XVID+Momentum+%5BDodeca&amp;tr=udp%3A%2F%2Ftracker.openbittorrent.com%3A80&amp;tr=udp%3A%2F%2Fopen.demonii.com%3A1337&amp;tr=udp%3A%2F%2Ftracker.coppersurfer.tk%3A6969&amp;tr=udp%3A%2F%2Fexodus.desync.com%3A6969","seeders":1,"leechers":3,"uploader":"Dodecahedron9","files":-1,"time":1263390523,"description":"Chef Academy S01E09 Season Finale PDTV-XVID Momentum [Dodecahedron]\n\nEpisode 9: The Last Supper (Season Finale)\n\nThe pressure is intense as the students present their dish to their esteemed guests, and wonder if Chef Novelli will allow them to finally graduate.\n\n--\n   General\n\n      Format : AVI\n      Format/Info : Audio Video Interleave\n      File size : 349 MiB\n      Duration : 44mn 27s\n      Overall bit rate : 1 097 Kbps\n      Writing application : VirtualDubMod 1.5.10.2 (build 2540/release)\n      Writing library : VirtualDubMod build 2540/release\n\n   Video\n\n      Format : MPEG-4 Visual\n      Format profile : Streaming Video@L1\n      Format settings, BVOP : Yes\n      Format settings, QPel : No\n      Format settings, GMC : No warppoints\n      Format settings, Matrix : Default\n      Muxing mode : Packed bitstream\n      Codec ID : XVID\n      Codec ID/Hint : XviD\n      Duration : 44mn 27s\n      Bit rate : 961 Kbps\n      Width : 512 pixels\n      Height : 384 pixels\n      Display aspect ratio : 4/3\n      Frame rate : 29.970 fps\n      Resolution : 24 bits\n      Colorimetry : 4:2:0\n      Scan type : Progressive\n      Bits/(Pixel*Frame) : 0.163\n      Stream size : 306 MiB (88%)\n      Writing library : XviD 1.1.2 (UTC 2006-11-01)\n\n   Audio\n\n      Format : MPEG Audio\n      Format version : Version 1\n      Format profile : Layer 3\n      Codec ID : 55\n      Codec ID/Hint : MP3\n      Duration : 44mn 27s\n      Bit rate mode : Variable\n      Bit rate : 121 Kbps\n      Minimum bit rate : 128 Kbps\n      Channel(s) : 2 channels\n      Sampling rate : 48.0 KHz\n      Resolution : 16 bits\n      Stream size : 38.6 MiB (11%)\n      Alignment : Aligned on interleaves\n      Interleave, duration : 24 ms (0.72 video frame)\n      Interleave, preload duration : 541 ms\n      Writing library : LAME3.98r\n      Encoding settings : ABR","torrent":{"xt":"urn:btih:34ac0f87f69f11856b5ba343d290d0204a7bbb01","amp;dn":"Chef+Academy+S01E09+Season+Finale+PDTV-XVID+Momentum+%5BDodeca","amp;tr":["udp%3A%2F%2Ftracker.openbittorrent.com%3A80","udp%3A%2F%2Fopen.demonii.com%3A1337","udp%3A%2F%2Ftracker.coppersurfer.tk%3A6969","udp%3A%2F%2Fexodus.desync.com%3A6969"],"infoHash":"34ac0f87f69f11856b5ba343d290d0204a7bbb01","infoHashBuffer":{"type":"Buffer","data":[52,172,15,135,246,159,17,133,107,91,163,67,210,144,208,32,74,123,187,1]},"announce":[],"urlList":[]}}